<?xml version="1.0" standalone="no"?><!-- Generator: Gravit.io --><svg xmlns="http://www.w3.org/2000/svg" xmlns:xlink="http://www.w3.org/1999/xlink" style="isolation:isolate" viewBox="0 0 320.189 69.257" width="320.189" height="69.257"><defs><clipPath id="_clipPath_fmo1mErPFUlGOQ5vBTbHrrmVKeDY6h1E"><rect width="320.188722" height="69.256807"/></clipPath></defs><g clip-path="url(#_clipPath_fmo1mErPFUlGOQ5vBTbHrrmVKeDY6h1E)"><path d=" M 319.891049 60.326844 C 319.196499 60.525292 318.601162 60.624512 318.005825 60.624512 C 315.922177 60.624512 314.929959 59.731514 314.929959 57.151749 L 314.929959 37.803502 C 314.929959 27.583661 306.793789 22.622571 297.169247 22.622571 C 289.82684 22.622571 285.857968 23.515564 278.019467 26.690663 L 276.431912 37.009728 L 286.65173 38.101166 L 288.140072 33.040856 C 290.223721 31.949414 292.3074 31.750973 294.986386 31.750973 C 302.22958 31.750973 302.328793 37.208172 302.328793 41.772374 L 302.328793 43.260701 C 300.046688 42.963036 297.466946 42.863812 294.986386 42.863812 C 284.766537 42.863812 274.149807 45.443581 274.149807 56.4572 C 274.149807 65.784043 281.492214 69.256806 287.941647 69.256806 C 295.184811 69.256806 299.74902 64.891053 302.328793 60.326844 C 302.92413 65.784043 306.198452 69.256806 312.15176 69.256806 C 314.929959 69.256806 317.8074 68.463036 320.188717 67.17315 L 319.891049 60.326844 Z  M 292.505856 60.029183 C 288.636166 60.029183 287.247067 57.747078 287.247067 54.869645 C 287.247067 50.007782 291.215939 48.7179 295.780148 48.7179 C 297.863827 48.7179 300.145901 49.015564 302.22958 49.313229 C 301.931912 56.75486 297.070034 60.029183 292.505856 60.029183 Z " fill-rule="evenodd" fill="rgb(255,255,255)"/><path d=" M 275.340461 0 L 255.992212 68.165369 L 243.391063 68.165369 L 262.739312 0 L 275.340461 0 Z " fill="rgb(255,255,255)"/><path d=" M 249.34437 0 L 229.996106 68.165369 L 217.394942 68.165369 L 236.743191 0 L 249.34437 0 Z " fill="rgb(255,255,255)"/><path d=" M 195.764588 23.515563 L 209.15953 23.515563 L 209.15953 39.589494 L 195.764588 39.589494 L 195.764588 23.515563 Z " fill="rgb(255,255,255)"/><path d=" M 195.764588 52.190662 L 209.15953 52.190662 L 209.15953 68.264589 L 195.764588 68.264589 L 195.764588 52.190662 Z " fill="rgb(255,255,255)"/><path d=" M 176.217899 51.595333 L 186.338518 52.587551 L 183.560305 68.264589 L 144.566154 68.264589 L 143.276268 61.517512 L 167.883275 33.239302 L 153.892996 33.239302 L 151.90856 40.184827 L 142.680931 39.192609 L 144.268486 23.515563 L 183.461093 23.515563 L 184.45331 30.262648 L 159.647863 58.540858 L 174.134235 58.540858 L 176.217899 51.595333 Z " fill="rgb(255,255,255)"/><path d=" M 76.698441 58.441638 L 82.651748 58.441638 L 82.651748 68.165369 L 63.998056 68.165369 L 63.998056 43.062257 C 63.998056 35.322958 61.418291 32.346304 56.357974 32.346304 C 50.206226 32.346304 47.725681 36.712064 47.725681 42.963036 L 47.725681 58.540858 L 53.678988 58.540858 L 53.678988 68.264589 L 34.926069 68.264589 L 34.926069 43.062257 C 34.926069 35.322958 32.346304 32.346304 27.285994 32.346304 C 21.134242 32.346304 18.653697 36.712064 18.653697 42.963036 L 18.653697 58.540858 L 27.18677 58.540858 L 27.18677 68.264589 L 0 68.264589 L 0 58.540858 L 5.953307 58.540858 L 5.953307 33.239302 L 0 33.239302 L 0 23.515563 L 18.752918 23.515563 L 18.752918 30.262648 C 21.431907 25.499999 26.095332 22.622569 32.346304 22.622569 C 38.79572 22.622569 44.749027 25.698443 46.931904 32.247084 C 49.412448 26.293776 54.472766 22.622569 61.517511 22.622569 C 69.554475 22.622569 76.896889 27.484435 76.896889 38.101167 L 76.896889 58.441638 L 76.698441 58.441638 Z " fill="rgb(255,255,255)"/><path d=" M 88.213621 45.890076 C 88.323681 39.405878 90.102219 33.917302 93.568352 29.902172 C 97.549507 25.290449 103.757019 22.622572 112.219849 22.622572 C 119.998688 22.622572 125.848801 25.155474 129.81517 29.186682 L 129.81517 29.186682 C 134.033941 33.474407 136.121591 39.457182 136.132268 45.890076 L 122.935758 45.890076 C 122.927995 41.928064 121.990036 38.24412 120.097672 35.602726 L 120.097672 35.602726 C 118.315681 33.115383 115.68737 31.552528 112.192528 31.552528 C 108.390388 31.552528 105.601509 33.198666 103.812874 36.044197 C 102.258091 38.517695 101.459104 41.897465 101.407365 45.890076 L 88.213621 45.890076 Z " fill-rule="evenodd" fill="rgb(255,255,255)"/><path d=" M 136.132268 45.443579 C 136.022208 51.927777 134.24367 57.416353 130.777537 61.431483 C 126.796382 66.043206 120.58887 68.711083 112.126041 68.711083 C 104.347201 68.711083 98.497089 66.178181 94.530719 62.146973 L 94.530719 62.146973 C 90.311948 57.859248 88.224298 51.876473 88.213621 45.443579 L 101.410131 45.443579 C 101.417894 49.405591 102.355853 53.089535 104.248218 55.730929 L 104.248218 55.730929 C 106.030208 58.218272 108.658519 59.781127 112.153361 59.781127 C 115.955501 59.781127 118.74438 58.134989 120.533015 55.289458 C 122.087798 52.81596 122.886785 49.43619 122.938524 45.443579 L 136.132268 45.443579 Z " fill-rule="evenodd" fill="rgb(255,255,255)"/></g></svg>