<?xml version="1.0" standalone="no"?><!-- Generator: Gravit.io --><svg xmlns="http://www.w3.org/2000/svg" xmlns:xlink="http://www.w3.org/1999/xlink" style="isolation:isolate" viewBox="0 0 357.198 102.099" width="357.198" height="102.099"><defs><clipPath id="_clipPath_UYzWMHANLjXJ7L9afPbU15ySTlZaPSo7"><rect width="357.198444" height="102.099222"/></clipPath></defs><g clip-path="url(#_clipPath_UYzWMHANLjXJ7L9afPbU15ySTlZaPSo7)"><path d=" M 0 0 L 357.198444 0 L 357.198444 102.099222 L 0 102.099222 L 0 0 Z " fill="rgb(0,0,0)"/><path d=" M 341.124502 73.3249 C 340.429967 73.523348 339.83463 73.622568 339.239294 73.622568 C 337.15563 73.622568 336.163412 72.72957 336.163412 70.149805 L 336.163412 50.801556 C 336.163412 40.581713 328.027243 35.620623 318.402718 35.620623 C 311.060311 35.620623 307.09144 36.513617 299.252924 39.688715 L 297.66537 50.007783 L 307.885202 51.099221 L 309.373529 46.038911 C 311.457192 44.947469 313.540856 44.749029 316.219856 44.749029 C 323.463035 44.749029 323.562263 50.206227 323.562263 54.770428 L 323.562263 56.258755 C 321.280144 55.96109 318.700401 55.861866 316.219856 55.861866 C 305.999994 55.861866 295.383281 58.441635 295.383281 69.455256 C 295.383281 78.782098 302.725687 82.254861 309.175103 82.254861 C 316.418282 82.254861 320.98249 77.889108 323.562263 73.3249 C 324.1576 78.782098 327.431907 82.254861 333.385214 82.254861 C 336.163412 82.254861 339.040868 81.461091 341.422185 80.171205 L 341.124502 73.3249 Z  M 313.739312 73.027239 C 309.869638 73.027239 308.480539 70.745135 308.480539 67.867701 C 308.480539 63.005836 312.44941 61.715953 317.013619 61.715953 C 319.097282 61.715953 321.379371 62.013618 323.463035 62.311283 C 323.165382 69.752917 318.30349 73.027239 313.739312 73.027239 Z " fill-rule="evenodd" fill="rgb(255,255,255)"/><path d=" M 296.573924 12.998054 L 277.225675 81.163423 L 264.624526 81.163423 L 283.972775 12.998054 L 296.573924 12.998054 Z " fill="rgb(255,255,255)"/><path d=" M 270.577833 12.998054 L 251.229569 81.163423 L 238.628405 81.163423 L 257.976654 12.998054 L 270.577833 12.998054 Z " fill="rgb(255,255,255)"/><path d=" M 216.998051 36.513617 L 230.392993 36.513617 L 230.392993 52.587548 L 216.998051 52.587548 L 216.998051 36.513617 Z " fill="rgb(255,255,255)"/><path d=" M 216.998051 65.188716 L 230.392993 65.188716 L 230.392993 81.262643 L 216.998051 81.262643 L 216.998051 65.188716 Z " fill="rgb(255,255,255)"/><path d=" M 197.451362 64.593387 L 207.571981 65.585605 L 204.793768 81.262643 L 165.799617 81.262643 L 164.509731 74.515566 L 189.116738 46.237356 L 175.126459 46.237356 L 173.142023 53.182881 L 163.914394 52.190663 L 165.501949 36.513617 L 204.694556 36.513617 L 205.686773 43.260702 L 180.881326 71.538912 L 195.367698 71.538912 L 197.451362 64.593387 Z " fill="rgb(255,255,255)"/><path d=" M 133.453308 35.620625 C 117.379379 35.620625 109.441635 46.435795 109.441635 59.533073 C 109.441635 73.821007 118.966927 82.25486 132.758759 82.25486 C 147.046692 82.25486 157.365768 73.225677 157.365768 58.937744 C 157.365768 46.435795 149.527237 35.620625 133.453308 35.620625 Z " fill="rgb(255,255,255)"/><path d=" M 133.15564 72.33268 C 126.210114 72.33268 122.63813 66.379372 122.63813 58.640079 C 122.63813 50.206226 126.706223 45.344357 133.254868 45.344357 C 139.307388 45.344357 144.169266 49.412449 144.169266 58.441635 C 144.169266 67.073929 139.803497 72.33268 133.15564 72.33268 Z " fill="rgb(0,0,0)"/><path d=" M 97.931904 71.439692 L 103.885211 71.439692 L 103.885211 81.163423 L 85.231519 81.163423 L 85.231519 56.060311 C 85.231519 48.321012 82.651754 45.344358 77.591437 45.344358 C 71.439689 45.344358 68.959144 49.710118 68.959144 55.96109 L 68.959144 71.538912 L 74.912451 71.538912 L 74.912451 81.262643 L 56.159532 81.262643 L 56.159532 56.060311 C 56.159532 48.321012 53.579767 45.344358 48.519457 45.344358 C 42.367705 45.344358 39.88716 49.710118 39.88716 55.96109 L 39.88716 71.538912 L 48.420233 71.538912 L 48.420233 81.262643 L 21.233463 81.262643 L 21.233463 71.538912 L 27.18677 71.538912 L 27.18677 46.237356 L 21.233463 46.237356 L 21.233463 36.513617 L 39.986381 36.513617 L 39.986381 43.260702 C 42.66537 38.498053 47.328795 35.620623 53.579767 35.620623 C 60.029183 35.620623 65.98249 38.696497 68.165367 45.245138 C 70.645911 39.29183 75.706229 35.620623 82.750974 35.620623 C 90.787938 35.620623 98.130352 40.482489 98.130352 51.099221 L 98.130352 71.439692 L 97.931904 71.439692 Z " fill="rgb(255,255,255)"/></g></svg>